<svg xmlns="http://www.w3.org/2000/svg" version="1.1" xmlns:xlink="http://www.w3.org/1999/xlink" xmlns:svgjs="http://svgjs.com/svgjs" width="1200" height="300" preserveAspectRatio="none" viewBox="0 0 1200 300"><g mask="url(&quot;#SvgjsMask1045&quot;)" fill="none"><path d="M130.08 322.83C223.96 321.5 308.16 209.9 488.22 209.8 668.28 209.7 667.29 247.3 846.35 247.3 1025.42 247.3 1114.47 209.85 1204.49 209.8" stroke="rgba(4, 197, 130, 1)" stroke-width="2"></path><path d="M508 357.32C613.31 334.41 578.66 60.05 818.56 58.36 1058.47 56.67 1283.45 127.25 1439.69 127.36" stroke="rgba(4, 197, 130, 1)" stroke-width="2"></path><path d="M193.73 342.4C281.22 342.16 365.91 281.14 538.29 281.14 710.68 281.14 710.58 318.64 882.86 318.64 1055.14 318.64 1140.77 281.2 1227.42 281.14" stroke="rgba(4, 197, 130, 1)" stroke-width="2"></path><path d="M439.48 307.91C545.53 289.43 591.6 30.7 765.64 26.77 939.67 22.84 928.72 64.27 1091.79 64.27 1254.87 64.27 1335.87 26.83 1417.95 26.77" stroke="rgba(4, 197, 130, 1)" stroke-width="2"></path><path d="M79.78 313.88C231.77 311.55 368.53 126.13 658.11 126.11 947.69 126.09 1088.47 251.38 1236.44 252.11" stroke="rgba(4, 197, 130, 1)" stroke-width="2"></path></g><defs><mask id="SvgjsMask1045"><rect width="1200" height="300" fill="#ffffff"></rect></mask></defs></svg>